<svg xmlns="http://www.w3.org/2000/svg" viewBox="0 0 64 64" role="img" aria-label="Santa Carmem Notícias favicon">
  <title>SC — favicon</title>
  <rect width="64" height="64" rx="12" fill="#1F6B3A"/>
  <path d="M 4,32 L 60,32 L 60,12 A 8,8 0 0 0 52,4 L 12,4 A 8,8 0 0 0 4,12 Z" fill="#E8F1F9"/>
  <circle cx="32" cy="24" r="8" fill="#E8B23A"/>
  <path d="M 4,32 Q 20,29 32,32 Q 44,35 60,32 L 60,52 A 8,8 0 0 1 52,60 L 12,60 A 8,8 0 0 1 4,52 Z" fill="#1F6B3A"/>
  <path d="M 4,40 Q 20,37 32,40 Q 44,43 60,40 L 60,52 A 8,8 0 0 1 52,60 L 12,60 A 8,8 0 0 1 4,52 Z" fill="#17532C"/>
  <text x="32" y="56" text-anchor="middle"
        font-family="Georgia, 'Source Serif 4', serif"
        font-weight="700" font-size="16" fill="#E8B23A" letter-spacing="-0.5">SC</text>
</svg>
