<svg xmlns="http://www.w3.org/2000/svg" viewBox="0 0 600 180" role="img" aria-label="Santa Carmem Notícias">
  <title>Santa Carmem Notícias — logo horizontal</title>
  <g transform="translate(90, 90)">
    <circle r="70" fill="#1F6B3A"/>
    <circle r="70" fill="none" stroke="#FFFFFF" stroke-width="1.5" stroke-opacity="0.25"/>
    <path d="M -70,0 A 70,70 0 0 1 70,0 Z" fill="#E8F1F9"/>
    <circle cx="0" cy="-12" r="16" fill="#E8B23A"/>
    <g stroke="#E8B23A" stroke-width="2.5" stroke-linecap="round">
      <line x1="-33" y1="-12" x2="-26" y2="-12"/>
      <line x1="26" y1="-12" x2="33" y2="-12"/>
      <line x1="-23" y1="-33" x2="-18" y2="-28"/>
      <line x1="18" y1="-28" x2="23" y2="-33"/>
      <line x1="0" y1="-35" x2="0" y2="-29"/>
    </g>
    <path d="M -70,0 Q -44,-3 -22,0 Q 0,3 22,0 Q 44,-3 70,0 L 70,70 L -70,70 Z" fill="#1F6B3A"/>
    <path d="M -70,11 Q -37,7 -15,11 Q 7,15 30,11 Q 52,7 70,11 L 70,70 L -70,70 Z" fill="#17532C"/>
    <path d="M -70,26 Q -29,22 -7,26 Q 15,30 37,26 Q 56,22 70,26 L 70,70 L -70,70 Z" fill="#103E21"/>
    <g font-family="Georgia, 'Source Serif 4', serif" text-anchor="middle" font-weight="700" fill="#E8B23A">
      <text y="52" font-size="36" letter-spacing="-1">SC</text>
    </g>
  </g>
  <g>
    <text x="180" y="85"
          font-family="Georgia, 'Source Serif 4', serif"
          font-weight="700" font-size="42" fill="#1A1D24" letter-spacing="0.5">
      Santa Carmem
    </text>
    <line x1="180" y1="100" x2="480" y2="100" stroke="#1F6B3A" stroke-width="2"/>
    <text x="180" y="128"
          font-family="'Inter', Arial, sans-serif"
          font-weight="600" font-size="18" fill="#1A1D24" letter-spacing="8">
      NOTÍCIAS LOCAIS DE MT
    </text>
  </g>
</svg>
