<svg xmlns="http://www.w3.org/2000/svg" viewBox="0 0 1200 630" role="img" aria-label="Santa Carmem Notícias">
  <title>Santa Carmem Notícias — imagem social 1200x630</title>
  <defs>
    <linearGradient id="bgGrad" x1="0%" y1="0%" x2="100%" y2="100%">
      <stop offset="0%" stop-color="#17532C"/>
      <stop offset="55%" stop-color="#1F6B3A"/>
      <stop offset="100%" stop-color="#103E21"/>
    </linearGradient>
    <linearGradient id="skyFade" x1="0%" y1="0%" x2="0%" y2="100%">
      <stop offset="0%" stop-color="#F6E9C6" stop-opacity="0.25"/>
      <stop offset="100%" stop-color="#FFFFFF" stop-opacity="0"/>
    </linearGradient>
  </defs>
  <rect width="1200" height="630" fill="url(#bgGrad)"/>
  <rect width="1200" height="300" fill="url(#skyFade)"/>
  <g opacity="0.15" stroke="#E8B23A" stroke-width="1.5" fill="none">
    <path d="M 0,460 Q 300,430 600,460 T 1200,460"/>
    <path d="M 0,490 Q 300,460 600,490 T 1200,490"/>
    <path d="M 0,520 Q 300,490 600,520 T 1200,520"/>
    <path d="M 0,550 Q 300,520 600,550 T 1200,550"/>
  </g>
  <g transform="translate(200, 315)">
    <circle r="170" fill="#FFFFFF" fill-opacity="0.06"/>
    <circle r="150" fill="#1F6B3A"/>
    <circle r="150" fill="none" stroke="#E8B23A" stroke-width="3" stroke-opacity="0.6"/>
    <path d="M -150,0 A 150,150 0 0 1 150,0 Z" fill="#E8F1F9"/>
    <circle cx="0" cy="-24" r="36" fill="#E8B23A"/>
    <g stroke="#E8B23A" stroke-width="5" stroke-linecap="round">
      <line x1="-72" y1="-24" x2="-56" y2="-24"/>
      <line x1="56" y1="-24" x2="72" y2="-24"/>
      <line x1="-52" y1="-72" x2="-40" y2="-62"/>
      <line x1="40" y1="-62" x2="52" y2="-72"/>
      <line x1="0" y1="-76" x2="0" y2="-64"/>
    </g>
    <path d="M -150,0 Q -95,-8 -48,0 Q 0,8 48,0 Q 95,-8 150,0 L 150,150 L -150,150 Z" fill="#1F6B3A"/>
    <path d="M -150,24 Q -80,16 -32,24 Q 16,32 64,24 Q 112,16 150,24 L 150,150 L -150,150 Z" fill="#17532C"/>
    <path d="M -150,56 Q -64,48 -16,56 Q 32,64 80,56 Q 120,48 150,56 L 150,150 L -150,150 Z" fill="#103E21"/>
    <g font-family="Georgia, 'Source Serif 4', serif" text-anchor="middle" font-weight="700" fill="#E8B23A">
      <text y="112" font-size="76" letter-spacing="-1">SC</text>
    </g>
  </g>
  <g transform="translate(430, 230)">
    <text x="0" y="0" font-family="Georgia, 'Source Serif 4', serif" font-weight="700" font-size="92" fill="#FFFFFF" letter-spacing="0.5">Santa Carmem</text>
    <line x1="4" y1="38" x2="640" y2="38" stroke="#E8B23A" stroke-width="3"/>
    <text x="0" y="86" font-family="'Inter', Arial, sans-serif" font-weight="600" font-size="30" fill="#E8F1F9" letter-spacing="14">NOTÍCIAS</text>
    <text x="0" y="190" font-family="Georgia, 'Source Serif 4', serif" font-style="italic" font-weight="400" font-size="28" fill="#E8B23A">O jornal digital da nossa cidade.</text>
    <text x="0" y="228" font-family="'Inter', Arial, sans-serif" font-weight="400" font-size="22" fill="#E8F1F9" opacity="0.9">Cidade · Polícia · Agronegócio · Esportes · Cultura</text>
  </g>
  <g transform="translate(600, 590)">
    <text text-anchor="middle" font-family="'Inter', Arial, sans-serif" font-weight="500" font-size="20" fill="#E8B23A" letter-spacing="6">SANTACARMEMNOTICIAS.COM.BR  ·  MATO GROSSO</text>
  </g>
</svg>
